<?xml version="1.0" encoding="UTF-8"?>
<svg width="102px" height="21px" viewBox="0 0 102 21" version="1.1" xmlns="http://www.w3.org/2000/svg" xmlns:xlink="http://www.w3.org/1999/xlink">
    <title>AU Card Types</title>
    <g id="Design-1.2" stroke="none" stroke-width="1" fill="none" fill-rule="evenodd">
        <g id="1.-375px-Checkout-/-Payment-Methods-/-Mastercard-Click-to-Pay-lookup-1.2" transform="translate(-24.000000, -32.000000)">
            <g id="Group-3" transform="translate(7.000000, 18.000000)">
                <g id="AU-Card-Types" transform="translate(17.000000, 14.000000)">
                    <g id="card-visa">
                        <path d="M32.75,0.25 L32.75,20.75 L0.25,20.75 L0.25,0.25 L32.75,0.25 Z" id="Path" stroke="#CBCBCB" stroke-width="0.5" fill="#FFFFFF"></path>
                        <g id="Layer_1" transform="translate(3.061268, 5.697129)" fill="#1434CB">
                            <path d="M16.8591549,0 C17.6577465,0 18.3232394,0.180861244 18.7225352,0.361722488 L18.456338,2.17033493 L18.2788732,2.07990431 C17.8795775,1.89904306 17.3915493,1.76339713 16.7260563,1.76339713 C15.9274648,1.76339713 15.528169,2.12511962 15.528169,2.48684211 C15.528169,2.84856459 15.971831,3.11985646 16.6816901,3.48157895 C17.8795775,4.02416268 18.4119718,4.74760766 18.4119718,5.69712919 C18.3676056,7.415311 16.9478873,8.50047847 14.7739437,8.50047847 C13.8422535,8.45526316 12.9549296,8.27440191 12.4669014,8.04832536 L12.7774648,6.19449761 L13.043662,6.33014354 C13.7091549,6.64665072 14.1528169,6.78229665 14.9957746,6.78229665 C15.5725352,6.78229665 16.2380282,6.51100478 16.2380282,5.96842105 C16.2380282,5.60669856 15.971831,5.3354067 15.1732394,4.9284689 C14.3746479,4.56674641 13.3542254,3.88851675 13.3542254,2.71291866 C13.3542254,1.13038278 14.8183099,0 16.8591549,0 Z M12.4669014,0.135645933 L11.1359155,8.36483254 L9.05070423,8.36483254 L10.3816901,0.135645933 L12.4669014,0.135645933 Z M3.37183099,0.135645933 C3.85985915,0.180861244 4.21478873,0.316507177 4.34788732,0.813875598 L5.05774648,4.61196172 L5.27957746,5.7423445 L7.32042254,0.135645933 L9.53873239,0.135645933 L6.2556338,8.36483254 L4.03732394,8.36483254 L2.18274808,1.20830815 C1.54384453,0.830835394 0.814923114,0.527656261 0,0.316507177 L0.0443661972,0.135645933 Z M24.0464789,0.135645933 C24.0464789,0.135645933 25.7323944,8.36483254 25.7767606,8.36483254 L23.8246479,8.36483254 C23.8246479,8.36483254 23.6028169,7.415311 23.5584507,7.14401914 L20.8964789,7.14401914 L20.4528169,8.36483254 L18.234507,8.36483254 L21.3401408,0.813875598 C21.5619718,0.271291866 21.9612676,0.135645933 22.4492958,0.135645933 Z M22.5823944,2.39641148 C22.5646479,2.45066986 22.5433521,2.51397129 22.5206366,2.58052823 L22.4503606,2.78417799 C22.3800845,2.98601914 22.3161972,3.16507177 22.3161972,3.16507177 C22.3161972,3.16507177 21.6507042,5.01889952 21.4732394,5.47105263 L21.743596,5.47175912 C22.2302377,5.47387859 23.2035211,5.48235646 23.2035211,5.51626794 C23.1147887,5.10933014 22.715493,3.11985646 22.715493,3.11985646 Z" id="Combined-Shape"></path>
                        </g>
                    </g>
                    <g id="Layer_1" transform="translate(36.000000, 0.000000)">
                        <rect id="Rectangle-path" stroke="#CBCBCB" stroke-width="0.5" fill="#FFFFFF" x="0.25" y="0.25" width="30.5" height="20.5"></rect>
                        <g id="mastercard" transform="translate(3.000000, 2.000000)">
                            <g id="Group" transform="translate(0.098954, 0.569114)" fill-rule="nonzero">
                                <g id="mc_symbol">
                                    <rect id="Rectangle" fill="#FF5F00" x="9.09437926" y="1.6934125" width="7.7022222" height="12.4507534"></rect>
                                    <path d="M9.88771256,7.91988889 C9.88577864,5.49066166 11.0125145,3.19546002 12.9432681,1.69561189 C9.66322153,-0.855670482 4.9529431,-0.48405414 2.1226899,2.54929894 C-0.7075633,5.58265201 -0.7075633,10.2593251 2.1226899,13.2926782 C4.9529431,16.3260314 9.66322153,16.6976477 12.9432681,14.1463653 C11.0119001,12.6460409 9.88509542,10.3498879 9.88771256,7.91988889 Z" id="Path" fill="#EB001B"></path>
                                    <polygon id="Path" fill="#F79E1B" points="24.9746582 12.9138052 24.9746582 12.6474458 25.0848277 12.6474458 25.0848277 12.6030525 24.8204209 12.6030525 24.8204209 12.6474458 24.9305904 12.6474458 24.9305904 12.9138052"></polygon>
                                    <polygon id="Path" fill="#F79E1B" points="25.4817133 12.6030525 25.3935777 12.6030525 25.3054421 12.8250187 25.2173065 12.6030525 25.1291709 12.6030525 25.1291709 12.9138052 25.1952727 12.9138052 25.1952727 12.6696424 25.2685367 12.869412 25.3495099 12.869412 25.4203722 12.6696424 25.4203722 12.9138052 25.4817133 12.9138052"></polygon>
                                    <path d="M25.8877126,7.91988889 C25.8877126,10.9513934 24.1386951,13.7167473 21.3836582,15.0414942 C18.6286215,16.3662411 15.351177,16.0178041 12.9432681,14.1441659 C14.8731793,12.6430445 16,10.348148 16,7.91878921 C16,5.48943049 14.8731793,3.19453396 12.9432681,1.6934125 C15.351177,-0.180225708 18.6286215,-0.528662627 21.3836582,0.79608424 C24.1386951,2.12083111 25.8877126,4.886185 25.8877126,7.91768952 L25.8877126,7.91988889 Z" id="Path" fill="#F79E1B"></path>
                                </g>
                            </g>
                            <rect id="Rectangle-export" x="0" y="0" width="26" height="17"></rect>
                        </g>
                    </g>
                    <g id="icon-/-card-amex-2" transform="translate(70.000000, 0.000000)">
                        <polygon id="Fill-1" fill="#FEFEFE" points="0 0 0 10.0003825 0 20 15.9604133 20 31.9196058 20 31.9196058 9.9372729 31.9196058 0"></polygon>
                        <g id="Group-8" transform="translate(0.000305, 0.000428)" fill="#2671B8">
                            <path d="M20.3012111,16.7206732 L19.5326744,15.7458023 L19.5326744,16.7206732 L17.24904,16.7206732 L17.24904,15.3449608 C16.9584733,15.4379805 16.6263971,15.4930579 16.2491487,15.4930579 L15.8847195,15.4930579 L15.8847195,16.7206732 L12.5261104,16.7206732 L11.9565752,15.9128705 L11.4029114,16.7206732 L5.90106769,16.7206732 L5.90106769,11.2686173 L10.6673381,11.2686173 L11.424887,11.2698413 L11.9834343,12.0666284 L12.548086,11.2698413 L31.9189954,11.2698413 L31.9189954,0 L0,0 L0,6.63476764 L1.06398686,4.14587875 L3.23530141,4.14587875 L3.87015301,5.55157774 L3.87015301,4.14587875 L6.5237106,4.14587875 L6.92659719,5.35268694 L7.33009422,4.14587875 L19.054094,4.14587875 L19.054094,4.6874737 C19.5045945,4.31906674 20.0900009,4.14587875 20.7260734,4.14587875 L24.293451,4.14587875 L24.9276922,5.55157774 L24.9276922,4.14587875 L27.0294172,4.14587875 L27.727754,5.24987569 L27.727754,4.14587875 L30.1237083,4.14587875 L30.1237083,9.5979346 L27.8663225,9.5979346 L27.1899614,8.5361637 L27.1899614,9.5979346 L23.9387887,9.5979346 L23.6274673,8.78951998 L22.8809062,8.78951998 L22.5744682,9.5979346 L20.6668612,9.5979346 C20.1437191,9.5979346 19.5357266,9.48227194 19.054094,9.09917766 L19.054094,9.5979346 L15.8468726,9.5979346 L15.0783359,8.62306368 L15.0783359,9.5979346 L2.88063912,9.5979346 L2.56931767,8.78951998 L1.82153574,8.78951998 L1.51631862,9.5979346 L0,9.5979346 L0,20.999388 L31.9189954,20.999388 L31.9189954,16.3902085 C31.5856983,16.5970549 31.1718239,16.7206732 30.7097252,16.7206732 L20.3012111,16.7206732 Z" id="Fill-2"></path>
                            <path d="M31.9191175,12.1329662 L31.9294948,12.1097112 L31.9191175,12.1097112 L29.984041,12.1097112 C29.1727739,12.1097112 28.68931,12.6054083 28.68931,13.2840849 C28.68931,13.9903002 29.1453043,14.3942016 29.8607332,14.3942016 L30.7257185,14.3942016 C30.9405914,14.3942016 31.0962521,14.5282234 31.0962521,14.7387416 C31.0962521,14.9431402 30.9405914,15.0783859 30.7257185,15.0783859 L28.7967464,15.0783859 L28.7967464,15.8806808 L30.7037429,15.8806808 C31.3312693,15.8806808 31.7555211,15.5808147 31.9191175,15.1212239 C31.9673418,14.9853662 31.9996948,14.839717 31.9996948,14.6793804 C31.9996948,14.5068044 31.9716148,14.3525875 31.9191175,14.2185657 C31.7616254,13.8177242 31.3794936,13.5968024 30.8270506,13.5968024 L29.9571819,13.5968024 C29.742309,13.5968024 29.5964152,13.4566609 29.5964152,13.2522624 C29.5964152,13.0466399 29.742309,12.9126181 29.9571819,12.9126181 L31.5748326,12.9126181 L31.9191175,12.1329662 Z M26.1309801,13.2522624 C26.1309801,13.0466399 26.2762635,12.9126181 26.4911363,12.9126181 L28.108787,12.9126181 L28.4634493,12.1097112 L26.5179954,12.1097112 C25.7061179,12.1097112 25.2232644,12.6054083 25.2232644,13.2840849 C25.2232644,13.9903002 25.6798692,14.3942016 26.3946877,14.3942016 L27.259673,14.3942016 C27.4745458,14.3942016 27.6302066,14.5282234 27.6302066,14.7387416 C27.6302066,14.9431402 27.4745458,15.0783859 27.259673,15.0783859 L25.3307008,15.0783859 L25.3307008,15.8806808 L27.2383078,15.8806808 C28.0495749,15.8806808 28.5324284,15.3855957 28.5324284,14.6793804 C28.5324284,13.9903002 28.0984096,13.5968024 27.3610051,13.5968024 L26.4911363,13.5968024 C26.2762635,13.5968024 26.1309801,13.4566609 26.1309801,13.2522624 L26.1309801,13.2522624 Z M21.8323023,15.8806808 L24.8472369,15.8806808 L24.8472369,15.0783859 L22.7406284,15.0783859 L22.7406284,14.3782903 L24.7990126,14.3782903 L24.7990126,13.5912947 L22.7406284,13.5912947 L22.7406284,12.9126181 L24.8472369,12.9126181 L24.8472369,12.1097112 L21.8323023,12.1097112 L21.8323023,15.8806808 Z M21.6119355,15.8806808 L20.3654288,14.4970128 C21.0002804,14.3721706 21.3811914,13.908908 21.3811914,13.3055039 C21.3811914,12.6005125 20.8818562,12.1097112 20.0809665,12.1097112 L18.0335701,12.1097112 L18.0335701,15.8806808 L18.9418962,15.8806808 L18.9418962,14.5282234 L19.3655376,14.5282234 L20.4838531,15.8806808 L21.6119355,15.8806808 Z M19.9948952,13.7473475 L18.9418962,13.7473475 L18.9418962,12.9126181 L19.9948952,12.9126181 C20.3062167,12.9126181 20.4679818,13.1060011 20.4679818,13.3324307 C20.4679818,13.5643679 20.3062167,13.7473475 19.9948952,13.7473475 L19.9948952,13.7473475 Z M17.5549896,13.3709849 C17.5549896,12.6213196 17.0556544,12.1097112 16.2541543,12.1097112 L14.1805092,12.1097112 L14.1805092,15.8806808 L15.0888353,15.8806808 L15.0888353,14.6359304 L16.2230221,14.6359304 C17.0446666,14.6359304 17.5549896,14.0973953 17.5549896,13.3709849 L17.5549896,13.3709849 Z M16.64178,13.3758807 C16.64178,13.628625 16.4812358,13.8342475 16.1686935,13.8342475 L15.0888353,13.8342475 L15.0888353,12.9126181 L16.1686935,12.9126181 C16.4812358,12.9126181 16.64178,13.1170166 16.64178,13.3758807 L16.64178,13.3758807 Z M14.019965,15.8806808 L12.5097507,13.9792848 L14.0095876,12.1097112 L12.9071434,12.1097112 L11.9884399,13.3055039 L11.0697364,12.1097112 L9.93554959,12.1097112 L11.44027,13.995196 L9.94165393,15.8806808 L11.0428773,15.8806808 L11.9670747,14.6683649 L12.8863887,15.8806808 L14.019965,15.8806808 Z M6.77594202,15.8806808 L9.79087668,15.8806808 L9.79087668,15.0783859 L7.68426816,15.0783859 L7.68426816,14.3782903 L9.74265237,14.3782903 L9.74265237,13.5912947 L7.68426816,13.5912947 L7.68426816,12.9126181 L9.79087668,12.9126181 L9.79087668,12.1097112 L6.77594202,12.1097112 L6.77594202,15.8806808 Z" id="Fill-4"></path>
                            <path d="M29.2377241,8.75726908 L29.2377241,4.98629948 L28.3513736,4.98629948 L28.3513736,6.99050679 L28.361751,7.44275387 L28.3513736,7.44275387 L28.0931599,7.02294129 L26.7660759,4.98629948 L25.6538647,4.98629948 L25.6538647,8.75726908 L26.5402152,8.75726908 L26.5402152,6.66126602 L26.5292274,6.21513865 L26.5402152,6.21513865 L26.7923246,6.63005546 L28.1786207,8.75726908 L29.2377241,8.75726908 Z M24.4549719,8.75726908 L25.4811118,8.75726908 L23.8744489,4.98629948 L22.6816605,4.98629948 L21.0695037,8.75726908 L22.0419254,8.75726908 L22.3593512,7.9653777 L24.1326626,7.9653777 L24.4549719,8.75726908 Z M23.8427064,7.23835533 L22.6499179,7.23835533 L23.0045802,6.35405622 L23.2408182,5.76166762 L23.251806,5.76166762 L23.4825502,6.35405622 L23.8427064,7.23835533 Z M20.6885927,5.80511761 L21.6713918,5.80511761 L21.6713918,4.98629948 L20.6183928,4.98629948 C19.451853,4.98629948 18.8188327,5.76778734 18.8188327,6.83934978 L18.8188327,6.90421878 C18.8188327,8.0302467 19.4689451,8.7523733 20.5542972,8.75726908 L20.6074049,8.75726908 L20.9779385,7.94946644 L20.6989701,7.94946644 C20.0867046,7.94946644 19.7210544,7.56698413 19.7210544,6.89871103 L19.7210544,6.8454695 C19.7210544,6.24634921 20.0488576,5.80511761 20.6885927,5.80511761 L20.6885927,5.80511761 Z M17.3782079,8.75726908 L18.286534,8.75726908 L18.286534,6.87178428 L18.286534,4.98629948 L17.3782079,4.98629948 L17.3782079,6.87178428 L17.3782079,8.75726908 Z M17.1578411,8.75726908 L15.9113344,7.37237713 C16.5455756,7.24875884 16.927097,6.78610824 16.927097,6.18270415 C16.927097,5.47648881 16.4277618,4.98629948 15.6268721,4.98629948 L13.5794757,4.98629948 L13.5794757,8.75726908 L14.4878018,8.75726908 L14.4878018,7.4054236 L14.912664,7.4054236 L16.0297587,8.75726908 L17.1578411,8.75726908 Z M15.5408009,6.62393574 L14.4878018,6.62393574 L14.4878018,5.78920635 L15.5408009,5.78920635 C15.8521223,5.78920635 16.0138874,5.98320138 16.0138874,6.20901893 C16.0138874,6.44095621 15.8521223,6.62393574 15.5408009,6.62393574 L15.5408009,6.62393574 Z M9.9577694,8.75726908 L12.9727041,8.75726908 L12.9727041,7.95436221 L10.8654851,7.95436221 L10.8654851,7.25426659 L12.9232589,7.25426659 L12.9232589,6.46788296 L10.8654851,6.46788296 L10.8654851,5.78920635 L12.9727041,5.78920635 L12.9727041,4.98629948 L9.9577694,4.98629948 L9.9577694,8.75726908 Z M8.37308214,8.75726908 L9.25393873,8.75726908 L9.25393873,4.98629948 L7.78157137,4.98629948 L7.0508816,7.16797858 L6.93245736,7.58289539 L6.92146954,7.58289539 L6.79877226,7.16797858 L6.06197815,4.98629948 L4.59449426,4.98629948 L4.59449426,8.75726908 L5.47657173,8.75726908 L5.47657173,6.28429145 L5.45947957,5.70842609 L5.47046738,5.70842609 L5.65359765,6.28429145 L6.51308905,8.75726908 L7.33534395,8.75726908 L8.19544578,6.28429145 L8.37796561,5.70842609 L8.38895343,5.70842609 L8.37308214,6.28429145 L8.37308214,8.75726908 Z M3.39682231,8.75726908 L4.42357268,8.75726908 L2.81629936,4.98629948 L1.62351087,4.98629948 L0.0119645109,8.75726908 L0.984386237,8.75726908 L1.3012016,7.9653777 L3.07451304,7.9653777 L3.39682231,8.75726908 Z M2.78394634,7.23835533 L1.59115786,7.23835533 L1.94582015,6.35405622 L2.18205819,5.76166762 L2.19304601,5.76166762 L2.42440058,6.35405622 L2.78394634,7.23835533 Z" id="Fill-6"></path>
                        </g>
                    </g>
                </g>
            </g>
        </g>
    </g>
</svg>